<?xml version="1.0" standalone="no"?>
<!DOCTYPE svg PUBLIC "-//W3C//DTD SVG 20010904//EN"
 "http://www.w3.org/TR/2001/REC-SVG-20010904/DTD/svg10.dtd">
<svg version="1.0" xmlns="http://www.w3.org/2000/svg"
 width="1080.000000pt" height="1350.000000pt" viewBox="0 0 1080.000000 1350.000000"
 preserveAspectRatio="xMidYMid meet">

<g transform="translate(0.000000,1350.000000) scale(0.100000,-0.100000)"
fill="#000000" stroke="none">
<path d="M5745 9623 c-3 -26 -11 -64 -17 -83 -6 -19 -17 -64 -24 -100 -27
-134 -41 -197 -48 -208 -3 -5 -10 -36 -15 -69 -8 -55 -25 -131 -57 -254 -8
-30 -14 -71 -14 -91 0 -35 2 -37 54 -53 69 -22 88 -18 100 23 5 17 12 32 16
32 4 0 15 -16 26 -35 10 -19 39 -48 65 -65 44 -28 53 -30 141 -30 93 0 96 1
140 34 41 32 65 63 106 136 13 25 23 62 42 170 22 125 -32 248 -132 300 -26
13 -69 24 -108 27 -57 4 -71 1 -113 -21 -26 -14 -52 -26 -58 -26 -13 0 -11 23
5 78 16 54 43 171 52 224 7 42 5 43 -93 53 l-62 7 -6 -49z m289 -413 c39 -27
46 -37 57 -84 9 -44 9 -65 -5 -127 -20 -87 -45 -130 -90 -158 -43 -27 -91 -27
-142 0 -82 44 -103 121 -67 244 13 43 31 72 64 107 41 44 49 48 92 48 35 0 57
-7 91 -30z"/>
<path d="M4555 9557 c-11 -8 -37 -20 -57 -26 -42 -14 -46 -29 -27 -91 6 -19
17 -62 25 -95 15 -63 33 -136 53 -220 7 -27 19 -72 26 -100 22 -79 29 -135 17
-135 -6 0 -59 57 -118 128 -60 70 -111 129 -114 132 -3 3 -46 50 -95 105 -49
55 -93 102 -98 104 -5 2 -33 -9 -63 -24 -68 -34 -67 -23 -14 -260 12 -49 25
-117 30 -150 6 -33 13 -67 16 -75 13 -30 32 -165 24 -173 -6 -7 -35 26 -132
148 -5 6 -20 24 -33 40 -14 17 -69 87 -123 157 -87 114 -100 127 -128 128 -17
0 -42 -8 -55 -18 -13 -11 -37 -22 -52 -26 l-28 -7 53 -67 c29 -37 74 -94 101
-127 27 -33 128 -158 225 -279 97 -120 181 -220 187 -223 10 -3 72 23 134 56
30 15 35 37 23 93 -7 29 -24 111 -38 183 -14 71 -27 132 -29 135 -2 4 -9 38
-15 76 -6 38 -14 79 -17 92 -9 38 12 24 77 -50 34 -40 100 -113 145 -163 45
-49 104 -116 129 -147 50 -62 57 -66 75 -44 6 7 24 16 39 19 15 3 43 16 62 29
31 22 35 28 32 64 -2 21 -8 55 -13 74 -11 35 -28 107 -53 223 -7 34 -18 80
-24 102 -6 22 -20 81 -32 130 -11 50 -27 117 -35 150 -8 33 -18 78 -22 100 -9
43 -27 53 -58 32z"/>
<path d="M5160 9420 c-14 -5 -45 -14 -69 -20 -67 -18 -141 -97 -169 -181 -25
-76 -28 -165 -7 -224 8 -22 15 -47 15 -56 0 -9 20 -44 45 -77 32 -45 58 -68
97 -87 125 -61 310 -34 391 57 43 49 49 100 12 106 -11 2 -30 13 -42 25 -13
11 -24 19 -26 16 -2 -2 -16 -20 -31 -40 -28 -39 -80 -59 -151 -59 -63 0 -119
41 -144 107 -17 43 -8 53 47 54 26 0 72 5 102 10 30 6 102 13 160 17 l105 7 0
90 c0 87 -1 92 -38 145 -46 69 -67 84 -146 104 -67 17 -111 19 -151 6z m132
-134 c29 -13 36 -22 46 -63 15 -65 3 -73 -107 -73 -47 0 -102 -3 -123 -6 -30
-5 -37 -3 -40 12 -8 33 40 114 75 129 42 18 106 19 149 1z"/>
<path d="M6946 9166 c-14 -19 -32 -40 -39 -48 -7 -7 -46 -56 -87 -108 -40 -52
-79 -99 -85 -105 -6 -5 -53 -64 -105 -130 -52 -66 -99 -124 -105 -130 -28 -25
-85 -105 -85 -119 0 -8 33 -42 73 -75 39 -33 89 -74 109 -91 46 -39 120 -90
131 -90 5 0 20 -9 34 -20 14 -11 34 -20 45 -20 11 0 41 -7 69 -16 47 -16 53
-15 130 5 45 11 89 27 99 36 9 8 21 15 26 15 20 0 152 148 188 210 93 160 69
338 -64 470 -41 41 -295 250 -304 250 -2 0 -15 -15 -30 -34z m156 -243 c84
-68 112 -105 127 -170 15 -60 9 -96 -27 -173 -45 -98 -194 -222 -266 -222 -46
0 -139 44 -207 98 -39 31 -73 62 -76 69 -4 11 90 143 117 165 4 3 33 39 66 80
128 162 178 219 188 213 6 -4 41 -31 78 -60z"/>
<path d="M3353 8508 c-52 -69 -56 -83 -39 -143 51 -186 64 -241 56 -248 -4 -5
-42 17 -84 50 -41 32 -100 76 -131 98 -80 58 -127 92 -155 115 -14 11 -32 20
-42 20 -18 0 -64 -50 -81 -88 -10 -21 -7 -28 23 -54 69 -59 203 -158 216 -158
6 0 14 -6 17 -13 3 -8 29 -30 59 -50 95 -66 102 -71 174 -127 113 -87 223
-165 233 -165 11 0 74 81 83 106 5 12 -6 27 -32 48 -21 17 -43 31 -48 31 -5 0
-19 11 -32 25 -13 14 -27 25 -31 25 -4 0 -22 13 -38 28 -51 46 -31 52 166 52
l172 0 18 26 c10 14 28 38 40 53 37 46 20 51 -186 51 -103 0 -191 4 -197 8
-18 12 -31 43 -44 104 -6 32 -16 60 -21 63 -5 4 -9 17 -9 29 0 13 -7 48 -16
77 -30 99 -25 97 -71 37z"/>
<path d="M7389 8270 c-99 -17 -225 -115 -271 -210 -35 -71 -31 -167 9 -251 40
-80 101 -152 145 -168 18 -7 41 -17 50 -22 10 -5 35 -9 57 -9 36 0 39 2 44 35
3 19 3 51 0 70 -5 32 -8 35 -41 35 -27 0 -43 9 -77 43 -77 77 -84 170 -18 236
35 35 36 35 50 16 32 -45 120 -184 126 -199 11 -29 88 -137 101 -142 19 -7 84
31 135 79 49 47 91 127 91 173 0 37 -27 123 -46 145 -8 8 -14 20 -14 26 0 16
-94 109 -127 127 -36 18 -153 27 -214 16z m189 -155 c23 -16 45 -43 58 -74
l22 -49 -23 -50 c-20 -43 -39 -62 -64 -62 -8 0 -130 181 -143 213 -15 34 1 47
59 47 41 0 63 -6 91 -25z"/>
<path d="M3040 7905 c-14 -8 -32 -14 -40 -15 -27 0 -98 -82 -127 -145 -36 -79
-43 -182 -17 -257 18 -50 101 -148 125 -148 6 0 22 -9 36 -20 14 -11 36 -20
48 -20 13 0 36 -7 51 -15 37 -19 150 -19 184 0 14 8 34 14 44 15 37 0 104 68
141 143 62 126 56 220 -21 313 l-35 44 -45 -36 c-50 -41 -53 -53 -22 -94 15
-20 22 -45 22 -77 2 -139 -109 -205 -248 -147 -88 38 -123 64 -147 113 -22 44
-22 46 -5 95 24 67 60 105 108 112 21 4 38 11 38 16 0 5 -8 39 -17 74 -18 68
-28 75 -73 49z"/>
<path d="M7855 7704 c-56 -41 -108 -78 -159 -114 -69 -47 -132 -96 -139 -107
-4 -7 -14 -13 -21 -13 -7 0 -23 -11 -36 -25 -13 -14 -27 -25 -32 -25 -11 0
-92 -59 -100 -73 -3 -7 4 -48 17 -92 20 -70 26 -81 53 -92 18 -7 117 -17 224
-23 106 -6 236 -15 288 -22 152 -18 156 -17 152 12 -5 38 -21 93 -32 110 -6
11 -36 17 -102 21 -269 19 -398 33 -398 44 0 7 26 29 58 50 31 22 64 45 72 52
8 7 53 39 100 70 112 74 149 102 160 124 10 18 -24 150 -38 148 -4 0 -34 -20
-67 -45z"/>
<path d="M3247 7181 c-7 -35 -33 -43 -99 -31 -70 14 -288 24 -330 16 -105 -20
-176 -205 -133 -352 9 -32 28 -78 41 -101 30 -51 52 -55 107 -17 37 24 38 27
23 47 -37 51 -50 94 -50 160 -1 64 1 71 28 94 21 18 36 23 55 18 45 -11 47
-15 81 -242 18 -116 100 -173 227 -157 43 5 60 13 93 45 22 21 42 49 44 61 23
114 15 176 -30 222 -19 19 -34 39 -34 44 0 5 14 15 31 22 47 20 69 64 69 138
l0 62 -59 0 c-56 0 -59 -1 -64 -29z m-66 -205 c64 -50 77 -123 33 -175 -20
-24 -34 -31 -63 -31 -20 0 -46 7 -59 15 -24 17 -46 86 -56 172 l-7 53 63 -7
c41 -4 72 -13 89 -27z"/>
<path d="M7670 6951 c-62 -22 -111 -54 -144 -94 -57 -70 -69 -108 -69 -227 0
-89 3 -111 22 -146 21 -40 94 -114 112 -114 5 0 22 19 39 42 29 40 39 78 20
78 -5 0 -21 17 -35 37 -20 31 -25 50 -25 101 0 100 41 154 129 168 l41 7 0
-211 c0 -149 3 -213 12 -218 6 -4 54 -6 106 -5 104 2 137 13 184 65 51 55 61
84 65 191 4 90 2 105 -20 156 -31 67 -72 111 -141 146 -45 24 -64 27 -161 30
-60 1 -121 -2 -135 -6z m285 -191 c40 -27 44 -35 50 -83 4 -30 2 -70 -4 -93
-10 -34 -17 -42 -65 -62 -30 -13 -60 -21 -65 -17 -7 4 -11 58 -11 146 l0 139
26 0 c14 0 45 -13 69 -30z"/>
<path d="M3245 6595 c-22 -14 -43 -26 -47 -27 -4 -2 -1 -25 7 -52 18 -59 12
-89 -25 -119 -23 -20 -44 -25 -120 -30 -50 -4 -119 -14 -152 -23 -37 -9 -64
-12 -70 -6 -13 13 -38 111 -38 150 0 31 -21 45 -35 22 -3 -5 -24 -10 -47 -10
l-40 0 5 -37 c20 -138 20 -141 1 -146 -11 -3 -40 -10 -67 -17 -26 -7 -50 -17
-53 -22 -10 -15 17 -105 36 -123 16 -14 24 -15 58 -4 54 16 68 8 76 -40 l6
-41 48 0 c65 0 74 9 71 61 l-4 43 55 13 c30 6 98 17 150 22 121 14 215 42 252
78 58 55 68 167 24 265 -15 33 -40 68 -47 68 -2 0 -22 -12 -44 -25z"/>
<path d="M7432 6242 c-24 -22 -42 -48 -42 -60 0 -11 -4 -24 -10 -27 -5 -3 -10
-24 -10 -45 0 -44 11 -54 76 -64 38 -5 42 -4 48 18 3 14 13 32 22 40 20 20 86
21 124 1 16 -8 58 -19 93 -24 36 -5 74 -14 85 -20 11 -6 55 -17 98 -25 44 -9
104 -22 134 -31 30 -8 62 -15 72 -15 10 0 47 -10 82 -21 36 -12 71 -19 78 -16
15 5 53 131 44 146 -4 5 -28 13 -54 16 -26 4 -63 13 -82 20 -20 7 -58 16 -85
20 -28 4 -76 16 -107 26 -32 11 -70 19 -85 19 -15 1 -53 9 -83 20 -30 11 -67
19 -81 20 -15 0 -55 9 -89 20 -35 11 -90 20 -125 20 -58 0 -64 -2 -103 -38z"/>
<path d="M3126 6084 c-27 -14 -64 -42 -82 -62 -39 -43 -69 -130 -61 -182 3
-19 13 -75 21 -125 24 -139 22 -161 -19 -202 -29 -29 -40 -34 -61 -29 -43 11
-73 38 -101 91 -24 44 -27 62 -28 144 l0 94 -45 12 c-25 7 -53 15 -62 19 -46
20 -64 -129 -29 -239 72 -227 229 -326 391 -247 73 36 115 92 123 163 7 57 -4
193 -22 272 -13 55 2 95 48 134 65 55 139 12 186 -107 30 -77 31 -104 4 -172
-26 -68 -20 -94 29 -107 64 -19 86 -14 107 22 28 45 29 231 2 297 -50 122 -99
187 -170 228 -56 32 -164 30 -231 -4z"/>
<path d="M7475 5960 c-11 -5 -33 -9 -50 -9 -60 -2 -143 -76 -189 -167 -54
-107 -58 -192 -12 -282 24 -48 115 -142 137 -142 7 0 21 -7 30 -16 10 -9 35
-20 56 -24 21 -4 59 -13 85 -21 41 -11 54 -10 110 6 114 34 187 109 232 241
60 178 -72 362 -295 409 -83 17 -77 17 -104 5z m80 -163 c80 -30 141 -71 165
-110 21 -34 26 -100 11 -140 -14 -36 -78 -95 -111 -102 -41 -9 -162 41 -218
89 -63 56 -76 90 -57 153 19 61 40 88 90 112 50 25 48 25 120 -2z"/>
<path d="M6837 5602 c-26 -26 -47 -52 -47 -57 0 -6 52 -62 115 -124 64 -63
112 -118 108 -121 -5 -4 -37 -13 -73 -20 -57 -11 -70 -19 -111 -61 -62 -65
-79 -104 -79 -179 0 -90 42 -175 126 -256 36 -34 84 -71 107 -82 123 -60 146
-63 232 -30 96 36 175 154 159 235 -8 41 8 49 37 18 13 -13 29 -25 34 -25 14
0 105 92 105 106 0 6 -96 103 -212 216 -117 114 -264 256 -326 317 -62 61
-116 111 -120 111 -4 0 -29 -22 -55 -48z m351 -460 c31 -27 67 -67 79 -88 27
-47 30 -123 7 -159 -21 -32 -99 -85 -125 -85 -58 0 -204 119 -230 187 -25 67
2 145 63 184 27 16 44 19 91 16 53 -5 64 -10 115 -55z"/>
<path d="M3725 5370 l-28 -30 17 -39 c13 -28 15 -44 8 -57 -9 -16 -99 -104
-217 -210 -35 -31 -279 -259 -312 -291 -13 -12 -23 -26 -23 -30 0 -4 22 -33
49 -63 l48 -55 139 130 c77 72 207 192 289 267 83 76 158 150 166 165 39 68
31 142 -21 206 -40 47 -74 49 -115 7z"/>
<path d="M3954 5148 c-8 -18 -20 -41 -27 -50 -10 -15 -8 -20 11 -33 26 -19 28
-51 5 -85 -9 -14 -103 -133 -208 -265 -260 -326 -246 -307 -231 -326 20 -29
103 -87 113 -80 5 3 34 38 64 76 30 39 134 169 231 291 97 122 183 235 192
252 22 42 21 135 -1 169 -22 34 -91 83 -115 83 -12 0 -25 -12 -34 -32z"/>
<path d="M4216 4878 c-38 -84 -127 -270 -187 -392 -27 -54 -49 -104 -49 -112
0 -7 28 -27 62 -44 59 -30 62 -31 78 -13 10 10 30 47 46 83 116 266 166 330
255 330 40 0 55 -5 85 -32 20 -18 39 -41 43 -52 7 -18 -13 -86 -38 -134 -5 -9
-35 -71 -66 -137 -31 -66 -64 -135 -73 -154 -16 -32 -15 -34 3 -48 30 -22 81
-43 108 -43 20 0 30 13 61 83 21 45 62 132 91 192 94 194 102 234 64 309 -20
40 -86 96 -113 96 -8 0 -27 7 -42 15 -36 19 -77 19 -112 1 -55 -28 -72 -29
-72 -7 0 12 5 30 12 40 15 24 -2 48 -49 68 -62 25 -76 19 -107 -49z"/>
<path d="M6449 4920 c-52 -15 -155 -71 -186 -99 -44 -41 -83 -121 -83 -171 l0
-40 64 0 64 0 6 33 c10 52 67 112 121 127 69 19 124 8 162 -34 18 -20 33 -39
33 -43 0 -8 -39 -33 -90 -60 -14 -7 -63 -34 -110 -59 -47 -26 -102 -55 -122
-65 -58 -29 -59 -56 -4 -134 39 -55 99 -115 116 -115 9 0 20 -4 26 -10 20 -20
100 -23 135 -6 17 9 40 16 49 16 10 0 29 9 43 20 14 11 30 20 36 20 17 0 89
79 114 125 17 32 22 57 22 121 0 48 -6 93 -14 110 -50 107 -71 142 -113 183
-74 74 -184 107 -269 81z m243 -366 c12 -42 0 -100 -28 -133 -27 -33 -98 -56
-142 -47 -28 7 -77 49 -84 73 -3 12 57 57 93 68 13 4 30 13 38 19 21 17 95 53
105 51 6 -1 14 -15 18 -31z"/>
<path d="M6005 4723 c-97 -23 -97 -23 -92 -51 2 -15 16 -72 31 -127 59 -220
63 -262 29 -328 -15 -29 -104 -77 -143 -77 -17 0 -20 -7 -20 -42 0 -24 3 -54
7 -67 5 -22 10 -23 62 -19 62 4 116 36 127 72 8 31 26 66 34 66 4 0 12 -18 19
-41 15 -48 29 -55 73 -35 18 8 42 16 53 18 27 4 31 45 11 111 -14 48 -56 213
-91 362 -40 169 -42 172 -100 158z"/>
<path d="M5156 4587 c-9 -31 -19 -91 -22 -134 -3 -43 -12 -96 -19 -117 l-12
-39 -73 2 c-41 1 -92 9 -115 16 -22 8 -66 17 -96 21 l-56 6 -6 -52 c-4 -29 -4
-57 0 -62 13 -23 85 -41 181 -46 147 -7 147 -7 130 -147 l-13 -110 -45 -3
c-25 -2 -74 3 -110 12 -67 16 -102 22 -182 31 -44 5 -48 4 -53 -18 -4 -13 -5
-41 -3 -63 3 -37 5 -39 45 -46 23 -4 51 -12 63 -18 11 -6 60 -13 108 -16 48
-3 108 -12 133 -20 25 -8 76 -15 114 -17 l70 -2 6 40 c4 22 12 74 18 115 6 41
16 102 22 135 6 33 17 105 25 160 29 198 44 301 53 350 5 28 6 53 3 56 -4 4
-39 10 -79 14 l-71 7 -16 -55z"/>
<path d="M5490 4620 c-15 -15 -20 -33 -20 -74 0 -59 6 -67 62 -87 33 -11 41
-11 75 7 66 35 77 100 26 156 -24 26 -116 25 -143 -2z"/>
</g>
</svg>
